<?xml version="1.0" encoding="utf-8"?>
<!-- Generator: Adobe Illustrator 25.2.3, SVG Export Plug-In . SVG Version: 6.00 Build 0)  -->
<svg version="1.1" id="Capa_1" xmlns="http://www.w3.org/2000/svg" xmlns:xlink="http://www.w3.org/1999/xlink" x="0px" y="0px"
	 viewBox="0 0 319.3 58.4" style="enable-background:new 0 0 319.3 58.4;" xml:space="preserve">
<style type="text/css">
	.st0{fill:#0F172A;}
</style>
<g id="XMLID_453_">
	<path id="XMLID_494_" class="st0" d="M311.6,52.3c0-2.2,1-3.4,2.8-3.4c1.8,0,2.8,1.2,2.8,3.4c0,2.2-1,3.4-2.8,3.4
		C312.6,55.7,311.6,54.5,311.6,52.3 M309.6,52.3c0,3.2,1.8,5.2,4.8,5.2c3,0,4.8-2,4.8-5.2c0-3.2-1.8-5.2-4.8-5.2
		C311.4,47.1,309.6,49.1,309.6,52.3 M305.2,52.3c0,2.4-1,3.4-2.6,3.4c-1.6,0-2.6-1.2-2.6-3.4c0-2.2,1-3.4,2.6-3.4
		C304.1,48.9,305.2,49.9,305.2,52.3L305.2,52.3z M307.2,57.1V43.6l-0.2-0.2h-1.6l-0.2,0.2v4.8H305c0,0-0.8-1.2-2.6-1.2
		c-2.8,0-4.4,2.2-4.4,5.2c0,3,1.6,5.2,4.4,5.2c1.8,0,2.6-1.2,2.6-1.2h0.2l0.2,0.8l0.2,0.2h1.4L307.2,57.1z M293.6,53.7
		c0,1.2-1,2-2.6,2c-1.2,0-1.8-0.4-1.8-1.4c0-1,0.8-1.6,2.6-1.6c1,0,1.6,0.2,1.6,0.2l0.2,0.2V53.7z M295.6,57.1v-5.6c0-3-1-4.4-4-4.4
		c-3,0-4,1.6-4,3l0.2,0.2h1.6l0.2-0.2c0-0.8,0.6-1.2,2-1.2c1.4,0,2,0.4,2,1.8v0.4l-0.2,0.2c0,0-0.8-0.2-1.8-0.2
		c-2.6,0-4.4,1-4.4,3.2c0,2,1.2,3.2,3.4,3.2c2,0,2.8-1.2,2.8-1.2h0.2l0.2,0.8l0.2,0.2h1.4L295.6,57.1z M285.2,57.1v-1.4l-0.2-0.2
		h-1.6c-0.4,0-0.8-0.2-0.8-0.8v-5.4l0.2-0.2h2.2l0.2-0.2v-1.4l-0.2-0.2h-2.2l-0.2-0.2v-1.8l-0.2-0.2h-1.6l-0.2,0.2v1.8l-0.2,0.2
		h-1.4l-0.2,0.2v1.4l0.2,0.2h1.4l0.2,0.2v5.4c0,1.8,1.4,2.6,2.8,2.6h1.6L285.2,57.1z M277,48.9v-1.4l-0.2-0.2H276
		c-1.4,0-2,0.4-2.6,1h-0.2l-0.2-0.8l-0.2-0.2h-1.4l-0.2,0.2v9.6l0.2,0.2h1.6l0.2-0.2v-5c0-2.4,1-3,2.6-3h1L277,48.9z M268.2,57.1
		v-9.6l-0.2-0.2h-1.6l-0.2,0.2v4.8c0,2.4-1,3.4-2.4,3.4c-1.6,0-2-1.2-2-2.4v-5.8l-0.2-0.2H260l-0.2,0.2v5.8c0,2.2,1,4.2,3.8,4.2
		c1.6,0,2.4-1.2,2.4-1.2h0.2l0.2,0.8l0.2,0.2h1.4L268.2,57.1z M256.5,57.1V43.6l-0.2-0.2h-1.6l-0.2,0.2v5.6l-0.2,0.2h-6.6l-0.2-0.2
		v-5.6l-0.2-0.2h-1.6l-0.2,0.2v13.5l0.2,0.2h1.6l0.2-0.2v-5.8l0.2-0.2h6.6l0.2,0.2v5.8l0.2,0.2h1.6L256.5,57.1z M229.6,52.3
		c0-2.2,1-3.4,2.8-3.4c1.8,0,2.8,1.2,2.8,3.4c0,2.2-1,3.4-2.8,3.4C230.6,55.7,229.6,54.5,229.6,52.3 M227.6,52.3
		c0,3.2,1.8,5.2,4.8,5.2c3,0,4.8-2,4.8-5.2c0-3.2-1.8-5.2-4.8-5.2C229.4,47.1,227.6,49.1,227.6,52.3 M225.8,57.1v-1.4l-0.2-0.2H224
		c-0.4,0-0.8-0.2-0.8-0.8v-5.4l0.2-0.2h2.2l0.2-0.2v-1.4l-0.2-0.2h-2.2l-0.2-0.2v-1.8l-0.2-0.2h-1.6l-0.2,0.2v1.8l-0.2,0.2h-1.4
		l-0.2,0.2v1.4l0.2,0.2h1.4l0.2,0.2v5.4c0,1.8,1.4,2.6,2.8,2.6h1.6L225.8,57.1z M217.7,48.9v-1.4l-0.2-0.2h-0.8c-1.4,0-2,0.4-2.6,1
		h-0.2l-0.2-0.8l-0.2-0.2h-1.4l-0.2,0.2v9.6l0.2,0.2h1.6l0.2-0.2v-5c0-2.4,1-3,2.6-3h1L217.7,48.9z M205,57.5c2.4,0,3.8-1.4,4-3
		l-0.2-0.2h-1.6l-0.2,0.2c-0.4,1-1.2,1.2-2,1.2c-2.4,0-2.6-2-2.6-2.4l0.2-0.2h6.6l0.2-0.2v-0.6c0-2.8-1.4-5.2-4.6-5.2
		c-3.2,0-4.6,2.4-4.6,5.2C200.2,55.3,201.8,57.5,205,57.5 M207,51.5h-4.4l-0.2-0.2c0-0.6,0.2-2.4,2.4-2.4c2.2,0,2.4,1.8,2.4,2.4
		L207,51.5z M196.3,52.3c0,2.2-1,3.4-2.6,3.4c-1.6,0-2.6-1-2.6-3.4c0-2.4,1-3.4,2.6-3.4C195.2,48.9,196.3,50.1,196.3,52.3
		 M198.3,52.3c0-3.2-1.8-5.2-4.4-5.2c-1.8,0-2.6,1.2-2.6,1.2H191v-4.8l-0.2-0.2h-1.6l-0.2,0.2v13.5l0.2,0.2h1.4l0.2-0.2l0.2-0.8h0.2
		c0,0,0.8,1.2,2.6,1.2C196.5,57.5,198.3,55.3,198.3,52.3L198.3,52.3z M186,57.1V43.6l-0.2-0.2h-1.6l-0.2,0.2v13.5l0.2,0.2h1.6
		L186,57.1z M178.1,51.9l-0.2,0.2h-4.2l-0.2-0.2l2.2-5.6h0.2L178.1,51.9z M181.7,57.1v-1.4l-4.8-12.1l-0.2-0.2h-1.8l-0.2,0.2
		l-4.8,12.1v1.4l0.2,0.2h1.2l0.2-0.2l1.2-3l0.4-0.2h5.4l0.4,0.2l1.2,3l0.2,0.2h1.2L181.7,57.1z"/>
	<path id="XMLID_461_" class="st0" d="M274.9,30.4c0,2.4-1,3.4-2.6,3.4c-1.6,0-2.6-1.2-2.6-3.4c0-2.2,1-3.4,2.6-3.4
		C273.9,27,274.9,28,274.9,30.4L274.9,30.4z M276.9,35.2V21.6l-0.2-0.2h-1.6l-0.2,0.2v4.8h-0.2c0,0-0.8-1.2-2.6-1.2
		c-2.8,0-4.4,2.2-4.4,5.2c0,3,1.6,5.2,4.4,5.2c1.8,0,2.6-1.2,2.6-1.2h0.2l0.2,0.8l0.2,0.2h1.4L276.9,35.2z M263.3,31.8
		c0,1.2-1,2-2.6,2c-1.2,0-1.8-0.4-1.8-1.4c0-1,0.8-1.6,2.6-1.6c1,0,1.6,0.2,1.6,0.2l0.2,0.2V31.8z M265.4,35.2v-5.6c0-3-1-4.4-4-4.4
		c-3,0-4,1.6-4,3l0.2,0.2h1.6l0.2-0.2c0-0.8,0.6-1.2,2-1.2c1.4,0,2,0.4,2,1.8v0.4l-0.2,0.2c0,0-0.8-0.2-1.8-0.2
		c-2.6,0-4.4,1-4.4,3.2c0,2,1.2,3.2,3.4,3.2c2,0,2.8-1.2,2.8-1.2h0.2l0.2,0.8l0.2,0.2h1.4L265.4,35.2z M252.4,30.4
		c0,2.4-1,3.4-2.6,3.4c-1.6,0-2.6-1.2-2.6-3.4c0-2.2,1-3.4,2.6-3.4C251.4,27,252.4,28,252.4,30.4L252.4,30.4z M254.5,35.2V21.6
		l-0.2-0.2h-1.6l-0.2,0.2v4.8h-0.2c0,0-0.8-1.2-2.6-1.2c-2.8,0-4.4,2.2-4.4,5.2c0,3,1.6,5.2,4.4,5.2c1.8,0,2.6-1.2,2.6-1.2h0.2
		l0.2,0.8l0.2,0.2h1.4L254.5,35.2z M242.8,35.2v-9.5l-0.2-0.2H241l-0.2,0.2v9.5l0.2,0.2h1.6L242.8,35.2z M242.8,23.6V22l-0.2-0.2
		H241l-0.2,0.2v1.6l0.2,0.2h1.6L242.8,23.6z M238.3,32.6c0-1.8-1-2.6-3-3c-2-0.4-2.8-0.6-2.8-1.6c0-0.8,0.8-1,1.8-1
		c1.4,0,1.8,0.6,1.8,1.2l0.2,0.2h1.6l0.2-0.2c0-2-1.6-3-3.8-3c-2.8,0-3.8,1.4-3.8,2.8c0,1.8,1.2,2.6,3.2,3c2,0.4,2.6,0.6,2.6,1.6
		c0,0.8-0.6,1.2-2,1.2c-1.4,0-2-0.6-2-1.6l-0.2-0.2h-1.6l-0.2,0.2c0,2.2,1.4,3.4,4,3.4C237.1,35.6,238.3,34.2,238.3,32.6 M228.6,27
		v-1.4l-0.2-0.2h-0.8c-1.4,0-2,0.4-2.6,1h-0.2l-0.2-0.8l-0.2-0.2h-1.4l-0.2,0.2v9.5l0.2,0.2h1.6l0.2-0.2v-5c0-2.4,1-3,2.6-3h1
		L228.6,27z M215.9,35.6c2.4,0,3.8-1.4,4-3l-0.2-0.2h-1.6l-0.2,0.2c-0.4,1-1.2,1.2-2,1.2c-2.4,0-2.6-2-2.6-2.4l0.2-0.2h6.6l0.2-0.2
		v-0.6c0-2.8-1.4-5.2-4.6-5.2c-3.2,0-4.6,2.4-4.6,5.2C211.1,33.4,212.7,35.6,215.9,35.6 M217.9,29.6h-4.4l-0.2-0.2
		c0-0.6,0.2-2.4,2.4-2.4c2.2,0,2.4,1.8,2.4,2.4L217.9,29.6z M209.4,27v-1.4l-0.2-0.2H208l-0.2,0.2l-2.8,7h-0.2l-2.8-7l-0.2-0.2h-1.2
		l-0.2,0.2V27l3.4,8.2l0.2,0.2h1.8l0.2-0.2L209.4,27z M198.1,35.2v-9.5l-0.2-0.2h-1.6l-0.2,0.2v9.5l0.2,0.2h1.6L198.1,35.2z
		 M198.1,23.6V22l-0.2-0.2h-1.6l-0.2,0.2v1.6l0.2,0.2h1.6L198.1,23.6z M193.3,35.2v-5.8c0-2.4-1-4.2-3.8-4.2c-1.8,0-2.6,1.2-2.6,1.2
		h-0.2l-0.2-0.8l-0.2-0.2h-1.4l-0.2,0.2v9.5l0.2,0.2h1.6l0.2-0.2v-4.8c0-2.4,0.8-3.4,2.6-3.4c1.8,0,2,1.4,2,2.4v5.8l0.2,0.2h1.6
		L193.3,35.2z M181.2,21.6l-0.2-0.2h-1.6l-0.2,0.2v8.8c0,2-1,3.4-3.4,3.4c-2.4,0-3.4-1.4-3.4-3.4v-8.8l-0.2-0.2h-1.6l-0.2,0.2v8.8
		c0,3.2,2,5.2,5.4,5.2c3.4,0,5.4-2,5.4-5.2V21.6z"/>
	<path id="XMLID_455_" class="st0" d="M163.7,23.4v-1.6l-0.6-0.5h-1.7l-0.6,0.5l-19.5,33.8v1.6l0.6,0.5h1.7l0.6-0.5L163.7,23.4z
		 M89.1,56.8v0.8H111v-0.8c-4.9-0.4-5.4-0.6-5.4-3.2V26.4c2.1-2,4.9-4.4,8.3-4.4c4.3,0,5.9,2.7,5.9,6.6v24.9c0,2.6-0.6,2.8-4.3,3.2
		v0.8h20.8v-0.8c-4.9-0.4-5.4-0.6-5.4-3.2V29.2c0-8.7-4.9-11.8-10.7-11.8c-5.8,0-10.8,3.6-14.6,8.3h-0.4L105.6,0h-0.8L89.1,1.8v0.8
		C94,3,94.5,3.2,94.5,6.3v47.3C94.5,56.2,94,56.4,89.1,56.8 M70.6,37.6v13.7c-1.7,1.1-3.3,2.1-5.3,2.1c-3.2,0-4.9-2.1-4.9-6.6
		C60.3,41.1,63.3,38.4,70.6,37.6 M81.7,52.8V29.3c0.1-6.7-4.8-11.9-14.2-11.9c-11.2,0-17.2,8.2-17.2,12.5c0,2.8,2.2,3.9,4.6,3.9
		c2.6,0,4.5-1.3,4.5-3.1c0-2.2-4.2-2.9-4.2-5.8c0-3,3.4-5.2,7.2-5.2c5.9,0,8.3,4.2,8.3,9.1v8.1C52.8,38,49.1,44.4,49.1,49.3
		c0,5.1,3.4,9.2,9.4,9.2c4.8,0,8.8-2.4,12-6.3h0.2v1.1c0,2.8,1.7,5.2,5.7,5.2c4.1,0,8.1-2.1,11.3-4.6l-0.1-0.5
		c-1.4,0.8-2.7,1.6-3.8,1.6C82.5,54.9,81.7,54.1,81.7,52.8 M30.7,23.7v25.7c-2,1.8-5,3.9-9.2,3.9c-3.3,0-5-2.2-5-5.7V17.4h-1.3
		L0,19.2V20c4.9,0.4,5.4,0.6,5.4,3.7v22.9c0,8.7,4.9,11.8,10.7,11.8c5.8,0,10.8-3.6,14.6-8.3h0.4l0.2,8.3h0.8l15.1-1.8v-0.8
		c-4.9-0.4-5.4-0.6-5.4-3.7V17.4h-1.3l-16.8,1.8V20C30.1,20.4,30.7,20.6,30.7,23.7"/>
</g>
</svg>
